REM MD5 d6bd710150f942eec2138c1496a083e5
FILE "Mortal Kombat 3 (Europe).bin" BINARY
  TRACK 01 MODE2/2352
    INDEX 01 00:00:00
  TRACK 02 AUDIO
    INDEX 00 04:13:07
    INDEX 01 04:15:07
  TRACK 03 AUDIO
    INDEX 00 04:20:07
    INDEX 01 04:22:07
  TRACK 04 AUDIO
    INDEX 00 05:20:18
    INDEX 01 05:22:18
  TRACK 05 AUDIO
    INDEX 00 06:28:65
    INDEX 01 06:30:65
  TRACK 06 AUDIO
    INDEX 00 07:47:66
    INDEX 01 07:49:66
  TRACK 07 AUDIO
    INDEX 00 07:54:66
    INDEX 01 07:56:66
  TRACK 08 AUDIO
    INDEX 00 09:43:73
    INDEX 01 09:45:73
  TRACK 09 AUDIO
    INDEX 00 11:00:47
    INDEX 01 11:02:47
  TRACK 10 AUDIO
    INDEX 00 11:13:43
    INDEX 01 11:15:43
  TRACK 11 AUDIO
    INDEX 00 11:20:43
    INDEX 01 11:22:43
  TRACK 12 AUDIO
    INDEX 00 11:27:43
    INDEX 01 11:29:43
  TRACK 13 AUDIO
    INDEX 00 11:44:09
    INDEX 01 11:46:09
  TRACK 14 AUDIO
    INDEX 00 11:51:09
    INDEX 01 11:53:09
  TRACK 15 AUDIO
    INDEX 00 11:58:09
    INDEX 01 12:00:09
  TRACK 16 AUDIO
    INDEX 00 12:05:09
    INDEX 01 12:07:09
  TRACK 17 AUDIO
    INDEX 00 12:12:09
    INDEX 01 12:14:09
  TRACK 18 AUDIO
    INDEX 00 14:01:15
    INDEX 01 14:03:15
  TRACK 19 AUDIO
    INDEX 00 16:08:35
    INDEX 01 16:10:35
  TRACK 20 AUDIO
    INDEX 00 18:35:58
    INDEX 01 18:37:58
  TRACK 21 AUDIO
    INDEX 00 20:29:35
    INDEX 01 20:31:35
  TRACK 22 AUDIO
    INDEX 00 22:34:36
    INDEX 01 22:36:36
  TRACK 23 AUDIO
    INDEX 00 24:19:12
    INDEX 01 24:21:12
  TRACK 24 AUDIO
    INDEX 00 26:09:08
    INDEX 01 26:11:08
  TRACK 25 AUDIO
    INDEX 00 27:49:15
    INDEX 01 27:51:15
  TRACK 26 AUDIO
    INDEX 00 29:40:10
    INDEX 01 29:42:10
  TRACK 27 AUDIO
    INDEX 00 31:26:64
    INDEX 01 31:28:64
  TRACK 28 AUDIO
    INDEX 00 33:14:39
    INDEX 01 33:16:39
  TRACK 29 AUDIO
    INDEX 00 34:59:70
    INDEX 01 35:01:70
  TRACK 30 AUDIO
    INDEX 00 35:06:70
    INDEX 01 35:08:70
  TRACK 31 AUDIO
    INDEX 00 37:48:70
    INDEX 01 37:50:70
  TRACK 32 AUDIO
    INDEX 00 40:30:70
    INDEX 01 40:32:70
  TRACK 33 AUDIO
    INDEX 00 40:37:70
    INDEX 01 40:39:70
  TRACK 34 AUDIO
    INDEX 00 40:44:70
    INDEX 01 40:46:70
  TRACK 35 AUDIO
    INDEX 00 40:51:70
    INDEX 01 40:53:70
  TRACK 36 AUDIO
    INDEX 00 40:58:70
    INDEX 01 41:00:70
  TRACK 37 AUDIO
    INDEX 00 41:05:70
    INDEX 01 41:07:70
  TRACK 38 AUDIO
    INDEX 00 41:12:70
    INDEX 01 41:14:70
  TRACK 39 AUDIO
    INDEX 00 41:19:70
    INDEX 01 41:21:70
  TRACK 40 AUDIO
    INDEX 00 41:26:70
    INDEX 01 41:28:70
  TRACK 41 AUDIO
    INDEX 00 41:33:70
    INDEX 01 41:35:70
  TRACK 42 AUDIO
    INDEX 00 41:40:70
    INDEX 01 41:42:70
  TRACK 43 AUDIO
    INDEX 00 41:47:70
    INDEX 01 41:49:70
  TRACK 44 AUDIO
    INDEX 00 41:54:70
    INDEX 01 41:56:70
  TRACK 45 AUDIO
    INDEX 00 42:01:70
    INDEX 01 42:03:70
  TRACK 46 AUDIO
    INDEX 00 42:08:70
    INDEX 01 42:10:70
  TRACK 47 AUDIO
    INDEX 00 42:15:70
    INDEX 01 42:17:70
  TRACK 48 AUDIO
    INDEX 00 42:22:70
    INDEX 01 42:24:70
  TRACK 49 AUDIO
    INDEX 00 42:29:70
    INDEX 01 42:31:70
  TRACK 50 AUDIO
    INDEX 00 42:36:70
    INDEX 01 42:38:70
  TRACK 51 AUDIO
    INDEX 00 42:43:70
    INDEX 01 42:45:70
  TRACK 52 AUDIO
    INDEX 00 42:50:70
    INDEX 01 42:52:70
  TRACK 53 AUDIO
    INDEX 00 42:57:70
    INDEX 01 42:59:70
  TRACK 54 AUDIO
    INDEX 00 43:04:70
    INDEX 01 43:06:70
  TRACK 55 AUDIO
    INDEX 00 43:11:70
    INDEX 01 43:13:70
  TRACK 56 AUDIO
    INDEX 00 43:18:70
    INDEX 01 43:20:70
  TRACK 57 AUDIO
    INDEX 00 43:25:70
    INDEX 01 43:27:70
  TRACK 58 AUDIO
    INDEX 00 43:32:70
    INDEX 01 43:34:70
  TRACK 59 AUDIO
    INDEX 00 43:39:70
    INDEX 01 43:41:70
  TRACK 60 AUDIO
    INDEX 00 43:46:70
    INDEX 01 43:48:70
  TRACK 61 AUDIO
    INDEX 00 43:53:70
    INDEX 01 43:55:70
  TRACK 62 AUDIO
    INDEX 00 44:00:70
    INDEX 01 44:02:70
REM LEADOUT 46:42:70
